<?xml version="1.0" encoding="UTF-8" standalone="no"?>
<svg width="711px" height="901px" viewBox="0 0 711 901" version="1.1" xmlns="http://www.w3.org/2000/svg" xmlns:xlink="http://www.w3.org/1999/xlink">
    <!-- Generator: Sketch 42 (36781) - http://www.bohemiancoding.com/sketch -->
    <title>horn</title>
    <desc>Created with Sketch.</desc>
    <defs></defs>
    <g id="Page-1" stroke="none" stroke-width="1" fill="none" fill-rule="evenodd">
        <g id="horn" transform="translate(5.000000, 5.000000)" stroke="#010101">
            <path d="M383.716852,251.442277 C383.730043,255.751872 370.372134,261.415757 370.372134,261.415757 L353.781717,260.80545 C353.781717,260.80545 346.0345,262.498119 346.0345,269.206868 C346.0345,275.915618 355.387567,278.872947 355.387567,278.872947 L344.092535,286.835398 L344.092535,830.567433 L353.781717,843.740054 L344.092535,849.743663 C344.092535,849.743663 353.624485,890.711165 458.216525,890.711165 C562.808565,890.711165 570.512535,849.743663 570.512535,849.743663 L560.830226,843.740054 L570.512535,830.567433 L570.512535,288.894647 L560.830226,279.101161 C560.830226,279.101161 568.097373,277.165829 568.097373,268.985639 C568.097373,260.80545 560.433114,258.714883 560.433114,258.714883 L542.693045,260.834016 L528.007127,250.317772 L383.716852,251.442277 Z" id="Path" stroke-width="10" fill="#F3F3F3"></path>
            <path d="M528.007127,250.317772 L536.631674,236.711276 L554.566689,214.642688 L598.100978,214.963988 C598.100978,214.963988 618.339242,314.664332 630.418662,314.664332 L668.739955,314.664332 C668.739955,314.664332 701.090351,262.766074 701.090351,166.878004 C701.090351,70.9899332 668.739955,23.2131176 668.739955,23.2131176 L630.418662,23.5344172 C630.418662,23.5344172 598.646104,90.2528175 598.646104,123.51635 C568.097373,134.671582 138.812247,168.646306 79.0685751,48.368348 C19.3249029,-71.9096099 -1.0584378,62.9315293 0.332126346,135.613821 C1.72269049,208.296112 17.9422317,406.009414 79.0685751,288.894647 C140.194919,171.779879 375.057695,213.126443 375.057695,213.126443 C375.057695,213.126443 383.704593,247.437537 383.716852,251.442277 L383.716852,251.442277 L528.007127,250.317772 Z" id="Path" stroke-width="9" fill="#D0011B"></path>
        </g>
    </g>
</svg>